<svg width="20" height="20" viewBox="0 0 20 20" fill="none" xmlns="http://www.w3.org/2000/svg">
<g id="caret-left 1">
<path id="Vector" d="M7.05732 15.8082C6.99925 15.8662 6.95319 15.9352 6.92176 16.011C6.89034 16.0869 6.87416 16.1682 6.87416 16.2503C6.87416 16.3325 6.89034 16.4138 6.92176 16.4897C6.95319 16.5655 6.99925 16.6345 7.05732 16.6925C7.11539 16.7506 7.18433 16.7967 7.2602 16.8281C7.33607 16.8595 7.41739 16.8757 7.49951 16.8757C7.58163 16.8757 7.66295 16.8595 7.73882 16.8281C7.81469 16.7967 7.88363 16.7506 7.9417 16.6925L14.1917 10.4425C14.2498 10.3845 14.2959 10.3156 14.3274 10.2397C14.3588 10.1638 14.375 10.0825 14.375 10.0003C14.375 9.91821 14.3588 9.83688 14.3274 9.76101C14.2959 9.68514 14.2498 9.61621 14.1917 9.55816L7.9417 3.30816C7.82442 3.19088 7.66536 3.125 7.49951 3.125C7.33366 3.125 7.1746 3.19088 7.05732 3.30816C6.94004 3.42544 6.87416 3.5845 6.87416 3.75035C6.87416 3.9162 6.94004 4.07526 7.05732 4.19253L12.8659 10.0003L7.05732 15.8082Z" fill="#707070"/>
</g>
</svg>
